<svg id="visual" viewBox="0 0 960 540" width="960" height="540" xmlns="http://www.w3.org/2000/svg" xmlns:xlink="http://www.w3.org/1999/xlink" version="1.1"><rect x="0" y="0" width="960" height="540" fill="#fefefe"></rect><g transform="translate(468.1092345336824 292.52564472788794)"><path d="M185.8 -263C252.5 -207.2 326.4 -168.6 364.2 -105.7C402 -42.9 403.6 44.4 396.3 148C389.1 251.6 373.1 371.5 305.6 405.6C238.1 439.7 119 387.8 26.7 351.1C-65.6 314.3 -131.3 292.7 -199.7 258.9C-268.2 225.2 -339.5 179.3 -364.4 115.4C-389.3 51.5 -367.7 -30.5 -357.8 -133.2C-347.8 -236 -349.3 -359.5 -291.6 -418.2C-233.9 -477 -117 -471 -28.7 -431.5C59.5 -391.9 119 -318.8 185.8 -263" fill="#00aaff"></path></g></svg>