<svg id="visual" viewBox="0 0 960 540" width="960" height="540" xmlns="http://www.w3.org/2000/svg" xmlns:xlink="http://www.w3.org/1999/xlink" version="1.1"><rect x="0" y="0" width="960" height="540" fill="#fefefe"></rect><g transform="translate(416.68252269372636 275.1226548333258)"><path d="M164.1 -192.1C228.3 -179.3 306.7 -152.2 338.8 -99.3C370.9 -46.4 356.6 32.4 326.4 100.1C296.2 167.7 250.1 224.2 193 243.7C136 263.2 68 245.6 1.4 243.7C-65.2 241.8 -130.5 255.6 -163.1 228.2C-195.8 200.8 -195.9 132.2 -202.5 74.6C-209.2 16.9 -222.5 -29.9 -228.1 -93.1C-233.7 -156.3 -231.4 -235.9 -192.1 -256.9C-152.8 -277.8 -76.4 -240.2 -13.2 -222C50 -203.8 99.9 -205 164.1 -192.1" fill="#00aaff"></path></g></svg>