<svg id="visual" viewBox="0 0 900 600" width="900" height="600" xmlns="http://www.w3.org/2000/svg" xmlns:xlink="http://www.w3.org/1999/xlink" version="1.1"><rect x="0" y="0" width="900" height="600" fill="#fefefe"></rect><defs><linearGradient id="grad1_0" x1="33.3%" y1="100%" x2="100%" y2="0%"><stop offset="20%" stop-color="#00aaff" stop-opacity="1"></stop><stop offset="80%" stop-color="#00aaff" stop-opacity="1"></stop></linearGradient></defs><defs><linearGradient id="grad1_1" x1="33.3%" y1="100%" x2="100%" y2="0%"><stop offset="20%" stop-color="#00aaff" stop-opacity="1"></stop><stop offset="80%" stop-color="#fefefe" stop-opacity="1"></stop></linearGradient></defs><defs><linearGradient id="grad2_0" x1="0%" y1="100%" x2="66.7%" y2="0%"><stop offset="20%" stop-color="#00aaff" stop-opacity="1"></stop><stop offset="80%" stop-color="#00aaff" stop-opacity="1"></stop></linearGradient></defs><defs><linearGradient id="grad2_1" x1="0%" y1="100%" x2="66.7%" y2="0%"><stop offset="20%" stop-color="#fefefe" stop-opacity="1"></stop><stop offset="80%" stop-color="#00aaff" stop-opacity="1"></stop></linearGradient></defs><g transform="translate(900, 600)"><path d="M-378.6 0C-375.5 -51.7 -372.5 -103.3 -349.8 -144.9C-327 -186.4 -284.5 -217.9 -246.1 -246.1C-207.6 -274.2 -173.1 -299.1 -132.8 -320.6C-92.4 -342.1 -46.2 -360.4 0 -378.6L0 0Z" fill="#aad3ff"></path><path d="M-189.3 0C-187.8 -25.8 -186.3 -51.7 -174.9 -72.4C-163.5 -93.2 -142.3 -109 -123 -123C-103.8 -137.1 -86.6 -149.5 -66.4 -160.3C-46.2 -171.1 -23.1 -180.2 0 -189.3L0 0Z" fill="#00aaff"></path></g><g transform="translate(0, 0)"><path d="M378.6 0C377.8 54.2 377.1 108.4 349.8 144.9C322.4 181.3 268.4 200.1 231.2 231.2C194 262.4 173.5 306 137.8 332.6C102 359.2 51 368.9 0 378.6L0 0Z" fill="#aad3ff"></path><path d="M189.3 0C188.9 27.1 188.6 54.2 174.9 72.4C161.2 90.7 134.2 100 115.6 115.6C97 131.2 86.8 153 68.9 166.3C51 179.6 25.5 184.5 0 189.3L0 0Z" fill="#00aaff"></path></g></svg>