<svg id="visual" viewBox="0 0 900 600" width="900" height="600" xmlns="http://www.w3.org/2000/svg" xmlns:xlink="http://www.w3.org/1999/xlink" version="1.1"><rect x="0" y="0" width="900" height="600" fill="#fefefe"></rect><defs><linearGradient id="grad1_0" x1="33.3%" y1="0%" x2="100%" y2="100%"><stop offset="20%" stop-color="#00aaff" stop-opacity="1"></stop><stop offset="80%" stop-color="#00aaff" stop-opacity="1"></stop></linearGradient></defs><defs><linearGradient id="grad1_1" x1="33.3%" y1="0%" x2="100%" y2="100%"><stop offset="20%" stop-color="#00aaff" stop-opacity="1"></stop><stop offset="80%" stop-color="#fefefe" stop-opacity="1"></stop></linearGradient></defs><defs><linearGradient id="grad2_0" x1="0%" y1="0%" x2="66.7%" y2="100%"><stop offset="20%" stop-color="#00aaff" stop-opacity="1"></stop><stop offset="80%" stop-color="#00aaff" stop-opacity="1"></stop></linearGradient></defs><defs><linearGradient id="grad2_1" x1="0%" y1="0%" x2="66.7%" y2="100%"><stop offset="20%" stop-color="#fefefe" stop-opacity="1"></stop><stop offset="80%" stop-color="#00aaff" stop-opacity="1"></stop></linearGradient></defs><g transform="translate(900, 0)"><path d="M0 378.6C-51.7 375.5 -103.3 372.5 -144.9 349.8C-186.4 327 -217.9 284.5 -246.1 246.1C-274.2 207.6 -299.1 173.1 -320.6 132.8C-342.1 92.4 -360.4 46.2 -378.6 0L0 0Z" fill="#aad3ff"></path><path d="M0 189.3C-25.8 187.8 -51.7 186.3 -72.4 174.9C-93.2 163.5 -109 142.3 -123 123C-137.1 103.8 -149.5 86.6 -160.3 66.4C-171.1 46.2 -180.2 23.1 -189.3 0L0 0Z" fill="#00aaff"></path></g><g transform="translate(0, 600)"><path d="M0 -378.6C54.2 -377.8 108.4 -377.1 144.9 -349.8C181.3 -322.4 200.1 -268.4 231.2 -231.2C262.4 -194 306 -173.5 332.6 -137.8C359.2 -102 368.9 -51 378.6 0L0 0Z" fill="#aad3ff"></path><path d="M0 -189.3C27.1 -188.9 54.2 -188.6 72.4 -174.9C90.7 -161.2 100 -134.2 115.6 -115.6C131.2 -97 153 -86.8 166.3 -68.9C179.6 -51 184.5 -25.5 189.3 0L0 0Z" fill="#00aaff"></path></g></svg>