<svg id="visual" viewBox="0 0 900 600" width="900" height="600" xmlns="http://www.w3.org/2000/svg" xmlns:xlink="http://www.w3.org/1999/xlink" version="1.1"><rect x="0" y="0" width="900" height="600" fill="#114499"></rect><defs><linearGradient id="grad1_0" x1="33.3%" y1="0%" x2="100%" y2="100%"><stop offset="20%" stop-color="#fefefe" stop-opacity="1"></stop><stop offset="80%" stop-color="#fefefe" stop-opacity="1"></stop></linearGradient></defs><defs><linearGradient id="grad1_1" x1="33.3%" y1="0%" x2="100%" y2="100%"><stop offset="20%" stop-color="#fefefe" stop-opacity="1"></stop><stop offset="80%" stop-color="#e0e1f0" stop-opacity="1"></stop></linearGradient></defs><defs><linearGradient id="grad1_2" x1="33.3%" y1="0%" x2="100%" y2="100%"><stop offset="20%" stop-color="#c3c4e1" stop-opacity="1"></stop><stop offset="80%" stop-color="#e0e1f0" stop-opacity="1"></stop></linearGradient></defs><defs><linearGradient id="grad1_3" x1="33.3%" y1="0%" x2="100%" y2="100%"><stop offset="20%" stop-color="#c3c4e1" stop-opacity="1"></stop><stop offset="80%" stop-color="#a5a9d3" stop-opacity="1"></stop></linearGradient></defs><defs><linearGradient id="grad1_4" x1="33.3%" y1="0%" x2="100%" y2="100%"><stop offset="20%" stop-color="#878ec4" stop-opacity="1"></stop><stop offset="80%" stop-color="#a5a9d3" stop-opacity="1"></stop></linearGradient></defs><defs><linearGradient id="grad1_5" x1="33.3%" y1="0%" x2="100%" y2="100%"><stop offset="20%" stop-color="#878ec4" stop-opacity="1"></stop><stop offset="80%" stop-color="#6874b6" stop-opacity="1"></stop></linearGradient></defs><defs><linearGradient id="grad1_6" x1="33.3%" y1="0%" x2="100%" y2="100%"><stop offset="20%" stop-color="#455ba8" stop-opacity="1"></stop><stop offset="80%" stop-color="#6874b6" stop-opacity="1"></stop></linearGradient></defs><defs><linearGradient id="grad1_7" x1="33.3%" y1="0%" x2="100%" y2="100%"><stop offset="20%" stop-color="#455ba8" stop-opacity="1"></stop><stop offset="80%" stop-color="#114499" stop-opacity="1"></stop></linearGradient></defs><defs><linearGradient id="grad2_0" x1="0%" y1="0%" x2="66.7%" y2="100%"><stop offset="20%" stop-color="#fefefe" stop-opacity="1"></stop><stop offset="80%" stop-color="#fefefe" stop-opacity="1"></stop></linearGradient></defs><defs><linearGradient id="grad2_1" x1="0%" y1="0%" x2="66.7%" y2="100%"><stop offset="20%" stop-color="#e0e1f0" stop-opacity="1"></stop><stop offset="80%" stop-color="#fefefe" stop-opacity="1"></stop></linearGradient></defs><defs><linearGradient id="grad2_2" x1="0%" y1="0%" x2="66.7%" y2="100%"><stop offset="20%" stop-color="#e0e1f0" stop-opacity="1"></stop><stop offset="80%" stop-color="#c3c4e1" stop-opacity="1"></stop></linearGradient></defs><defs><linearGradient id="grad2_3" x1="0%" y1="0%" x2="66.7%" y2="100%"><stop offset="20%" stop-color="#a5a9d3" stop-opacity="1"></stop><stop offset="80%" stop-color="#c3c4e1" stop-opacity="1"></stop></linearGradient></defs><defs><linearGradient id="grad2_4" x1="0%" y1="0%" x2="66.7%" y2="100%"><stop offset="20%" stop-color="#a5a9d3" stop-opacity="1"></stop><stop offset="80%" stop-color="#878ec4" stop-opacity="1"></stop></linearGradient></defs><defs><linearGradient id="grad2_5" x1="0%" y1="0%" x2="66.7%" y2="100%"><stop offset="20%" stop-color="#6874b6" stop-opacity="1"></stop><stop offset="80%" stop-color="#878ec4" stop-opacity="1"></stop></linearGradient></defs><defs><linearGradient id="grad2_6" x1="0%" y1="0%" x2="66.7%" y2="100%"><stop offset="20%" stop-color="#6874b6" stop-opacity="1"></stop><stop offset="80%" stop-color="#455ba8" stop-opacity="1"></stop></linearGradient></defs><defs><linearGradient id="grad2_7" x1="0%" y1="0%" x2="66.7%" y2="100%"><stop offset="20%" stop-color="#114499" stop-opacity="1"></stop><stop offset="80%" stop-color="#455ba8" stop-opacity="1"></stop></linearGradient></defs><g transform="translate(900, 0)"><path d="M0 486.7C-61.4 473.4 -122.9 460.1 -181.4 437.9C-239.9 415.8 -295.4 384.9 -342.2 342.2C-389 299.6 -427.1 245.3 -449.7 186.3C-472.3 127.3 -479.5 63.6 -486.7 0L0 0Z" fill="#314fa0"></path><path d="M0 425.9C-53.8 414.2 -107.5 402.5 -158.7 383.2C-209.9 363.8 -258.5 336.8 -299.5 299.5C-340.4 262.2 -373.7 214.6 -393.5 163C-413.3 111.4 -419.6 55.7 -425.9 0L0 0Z" fill="#5767af"></path><path d="M0 365.1C-46.1 355.1 -92.2 345 -136 328.4C-179.9 311.8 -221.6 288.7 -256.7 256.7C-291.8 224.7 -320.3 183.9 -337.3 139.7C-354.2 95.5 -359.7 47.7 -365.1 0L0 0Z" fill="#7881bd"></path><path d="M0 304.2C-38.4 295.9 -76.8 287.5 -113.4 273.7C-149.9 259.9 -184.7 240.5 -213.9 213.9C-243.1 187.3 -266.9 153.3 -281.1 116.4C-295.2 79.5 -299.7 39.8 -304.2 0L0 0Z" fill="#969bcc"></path><path d="M0 243.4C-30.7 236.7 -61.4 230 -90.7 219C-119.9 207.9 -147.7 192.4 -171.1 171.1C-194.5 149.8 -213.5 122.6 -224.8 93.1C-236.2 63.6 -239.8 31.8 -243.4 0L0 0Z" fill="#b4b6da"></path><path d="M0 182.5C-23 177.5 -46.1 172.5 -68 164.2C-90 155.9 -110.8 144.3 -128.3 128.3C-145.9 112.4 -160.2 92 -168.6 69.9C-177.1 47.7 -179.8 23.9 -182.5 0L0 0Z" fill="#d1d2e8"></path><path d="M0 121.7C-15.4 118.4 -30.7 115 -45.3 109.5C-60 103.9 -73.9 96.2 -85.6 85.6C-97.3 74.9 -106.8 61.3 -112.4 46.6C-118.1 31.8 -119.9 15.9 -121.7 0L0 0Z" fill="#efeff7"></path><path d="M0 60.8C-7.7 59.2 -15.4 57.5 -22.7 54.7C-30 52 -36.9 48.1 -42.8 42.8C-48.6 37.5 -53.4 30.7 -56.2 23.3C-59 15.9 -59.9 8 -60.8 0L0 0Z" fill="#fefefe"></path></g><g transform="translate(0, 600)"><path d="M0 -486.7C63.9 -481.4 127.7 -476.1 186.3 -449.7C244.8 -423.3 298 -376 321 -321C344 -266.1 336.8 -203.6 359.4 -148.9C382 -94.1 434.4 -47.1 486.7 0L0 0Z" fill="#314fa0"></path><path d="M0 -425.9C55.9 -421.2 111.8 -416.6 163 -393.5C214.2 -370.4 260.8 -329 280.9 -280.9C301 -232.8 294.7 -178.2 314.5 -130.3C334.2 -82.3 380.1 -41.2 425.9 0L0 0Z" fill="#5767af"></path><path d="M0 -365.1C47.9 -361.1 95.8 -357 139.7 -337.3C183.6 -317.5 223.5 -282 240.8 -240.8C258 -199.6 252.6 -152.7 269.5 -111.6C286.5 -70.6 325.8 -35.3 365.1 0L0 0Z" fill="#7881bd"></path><path d="M0 -304.2C39.9 -300.9 79.8 -297.5 116.4 -281.1C153 -264.6 186.3 -235 200.6 -200.6C215 -166.3 210.5 -127.3 224.6 -93C238.7 -58.8 271.5 -29.4 304.2 0L0 0Z" fill="#969bcc"></path><path d="M0 -243.4C31.9 -240.7 63.9 -238 93.1 -224.8C122.4 -211.7 149 -188 160.5 -160.5C172 -133 168.4 -101.8 179.7 -74.4C191 -47.1 217.2 -23.5 243.4 0L0 0Z" fill="#b4b6da"></path><path d="M0 -182.5C23.9 -180.5 47.9 -178.5 69.9 -168.6C91.8 -158.8 111.8 -141 120.4 -120.4C129 -99.8 126.3 -76.4 134.8 -55.8C143.2 -35.3 162.9 -17.6 182.5 0L0 0Z" fill="#d1d2e8"></path><path d="M0 -121.7C16 -120.4 31.9 -119 46.6 -112.4C61.2 -105.8 74.5 -94 80.3 -80.3C86 -66.5 84.2 -50.9 89.8 -37.2C95.5 -23.5 108.6 -11.8 121.7 0L0 0Z" fill="#efeff7"></path><path d="M0 -60.8C8 -60.2 16 -59.5 23.3 -56.2C30.6 -52.9 37.3 -47 40.1 -40.1C43 -33.3 42.1 -25.5 44.9 -18.6C47.7 -11.8 54.3 -5.9 60.8 0L0 0Z" fill="#fefefe"></path></g></svg>