<svg id="visual" viewBox="0 0 900 600" width="900" height="600" xmlns="http://www.w3.org/2000/svg" xmlns:xlink="http://www.w3.org/1999/xlink" version="1.1"><rect x="0" y="0" width="900" height="600" fill="#fefefe"></rect><defs><linearGradient id="grad1_0" x1="33.3%" y1="0%" x2="100%" y2="100%"><stop offset="20%" stop-color="#114499" stop-opacity="1"></stop><stop offset="80%" stop-color="#114499" stop-opacity="1"></stop></linearGradient></defs><defs><linearGradient id="grad1_1" x1="33.3%" y1="0%" x2="100%" y2="100%"><stop offset="20%" stop-color="#114499" stop-opacity="1"></stop><stop offset="80%" stop-color="#969bcc" stop-opacity="1"></stop></linearGradient></defs><defs><linearGradient id="grad1_2" x1="33.3%" y1="0%" x2="100%" y2="100%"><stop offset="20%" stop-color="#fefefe" stop-opacity="1"></stop><stop offset="80%" stop-color="#969bcc" stop-opacity="1"></stop></linearGradient></defs><defs><linearGradient id="grad2_0" x1="0%" y1="0%" x2="66.7%" y2="100%"><stop offset="20%" stop-color="#114499" stop-opacity="1"></stop><stop offset="80%" stop-color="#114499" stop-opacity="1"></stop></linearGradient></defs><defs><linearGradient id="grad2_1" x1="0%" y1="0%" x2="66.7%" y2="100%"><stop offset="20%" stop-color="#969bcc" stop-opacity="1"></stop><stop offset="80%" stop-color="#114499" stop-opacity="1"></stop></linearGradient></defs><defs><linearGradient id="grad2_2" x1="0%" y1="0%" x2="66.7%" y2="100%"><stop offset="20%" stop-color="#969bcc" stop-opacity="1"></stop><stop offset="80%" stop-color="#fefefe" stop-opacity="1"></stop></linearGradient></defs><g transform="translate(900, 0)"><path d="M0 540.8C-73.6 537.9 -147.3 535 -207 499.7C-266.7 464.3 -312.4 396.5 -333.8 333.8C-355.1 271 -352 213.2 -382.5 158.4C-412.9 103.6 -476.9 51.8 -540.8 0L0 0Z" fill="#cacbe5"></path><path d="M0 360.6C-49.1 358.6 -98.2 356.7 -138 333.1C-177.8 309.5 -208.3 264.4 -222.5 222.5C-236.7 180.7 -234.7 142.1 -255 105.6C-275.3 69.1 -317.9 34.5 -360.6 0L0 0Z" fill="#606eb2"></path><path d="M0 180.3C-24.5 179.3 -49.1 178.3 -69 166.6C-88.9 154.8 -104.1 132.2 -111.3 111.3C-118.4 90.3 -117.3 71.1 -127.5 52.8C-137.6 34.5 -159 17.3 -180.3 0L0 0Z" fill="#114499"></path></g><g transform="translate(0, 600)"><path d="M0 -540.8C64.1 -515 128.2 -489.1 192.5 -464.7C256.8 -440.3 321.2 -417.4 375.5 -375.5C429.7 -333.6 473.8 -272.7 499.7 -207C525.5 -141.2 533.2 -70.6 540.8 0L0 0Z" fill="#cacbe5"></path><path d="M0 -360.6C42.7 -343.3 85.5 -326.1 128.3 -309.8C171.2 -293.5 214.1 -278.2 250.3 -250.3C286.5 -222.4 315.9 -181.8 333.1 -138C350.4 -94.2 355.5 -47.1 360.6 0L0 0Z" fill="#606eb2"></path><path d="M0 -180.3C21.4 -171.7 42.7 -163 64.2 -154.9C85.6 -146.8 107.1 -139.1 125.2 -125.2C143.2 -111.2 157.9 -90.9 166.6 -69C175.2 -47.1 177.7 -23.5 180.3 0L0 0Z" fill="#114499"></path></g></svg>