<svg id="visual" viewBox="0 0 900 600" width="900" height="600" xmlns="http://www.w3.org/2000/svg" xmlns:xlink="http://www.w3.org/1999/xlink" version="1.1"><rect x="0" y="0" width="900" height="600" fill="#fefefe"></rect><defs><linearGradient id="grad1_0" x1="33.3%" y1="0%" x2="100%" y2="100%"><stop offset="20%" stop-color="#fefefe" stop-opacity="1"></stop><stop offset="80%" stop-color="#fefefe" stop-opacity="1"></stop></linearGradient></defs><defs><linearGradient id="grad2_0" x1="0%" y1="0%" x2="66.7%" y2="100%"><stop offset="20%" stop-color="#fefefe" stop-opacity="1"></stop><stop offset="80%" stop-color="#fefefe" stop-opacity="1"></stop></linearGradient></defs><g transform="translate(900, 0)"><path d="M0 486.7C-42.9 432.7 -85.7 378.7 -150.8 364C-215.8 349.3 -303.1 373.9 -344.2 344.2C-385.3 314.5 -380.3 230.6 -396.3 164.2C-412.4 97.8 -449.6 48.9 -486.7 0L0 0Z" fill="#114499"></path></g><g transform="translate(0, 600)"><path d="M0 -486.7C74.3 -490.9 148.5 -495 186.3 -449.7C224 -404.4 225.2 -309.7 259.5 -259.5C293.8 -209.3 361.3 -203.5 404.7 -167.6C448.1 -131.8 467.4 -65.9 486.7 0L0 0Z" fill="#114499"></path></g></svg>