<svg id="visual" viewBox="0 0 900 600" width="900" height="600" xmlns="http://www.w3.org/2000/svg" xmlns:xlink="http://www.w3.org/1999/xlink" version="1.1"><rect width="900" height="600" fill="#fefefe"></rect><g><g transform="translate(443 83)"><path d="M83 -61.1C102.6 -41.5 110.2 -7.3 102.8 22.8C95.4 53 73.1 79.2 46 90.2C18.9 101.2 -12.9 97.1 -37.8 83.3C-62.6 69.5 -80.5 45.9 -85.8 20.2C-91.2 -5.5 -84.1 -33.5 -67.7 -52.3C-51.4 -71.2 -25.7 -80.9 3 -83.3C31.7 -85.7 63.3 -80.7 83 -61.1Z" fill="#114499"></path></g><g transform="translate(563 386)"><path d="M45.4 -35.8C55.9 -22.9 59.7 -4.2 55.8 12.7C51.9 29.6 40.3 44.6 25.4 51.2C10.6 57.7 -7.6 55.7 -27.1 49.1C-46.5 42.5 -67.1 31.2 -74.3 13C-81.6 -5.2 -75.6 -30.3 -61 -44.1C-46.4 -57.9 -23.2 -60.2 -2.9 -57.9C17.4 -55.6 34.8 -48.6 45.4 -35.8Z" fill="#114499"></path></g><g transform="translate(112 207)"><path d="M77.3 -61.6C91.9 -43.3 89.8 -11.6 80.7 14.4C71.6 40.5 55.4 61 31.7 76.5C8.1 91.9 -23.1 102.3 -50.4 93.5C-77.8 84.7 -101.2 56.6 -104.5 27.9C-107.8 -0.7 -90.9 -29.8 -70.1 -49.5C-49.3 -69.2 -24.7 -79.4 3.3 -82C31.3 -84.7 62.6 -79.8 77.3 -61.6Z" fill="#114499"></path></g><g transform="translate(862 176)"><path d="M50 -39.2C60.4 -26.7 61.6 -6.2 55.7 10C49.9 26.1 36.9 37.9 22.1 44.5C7.2 51.2 -9.4 52.6 -24.9 47C-40.3 41.3 -54.5 28.5 -58.1 13.2C-61.6 -2.1 -54.4 -19.9 -43 -32.6C-31.5 -45.3 -15.8 -53 2 -54.6C19.7 -56.2 39.5 -51.7 50 -39.2Z" fill="#114499"></path></g></g></svg>