<svg id="visual" viewBox="0 0 900 600" width="900" height="600" xmlns="http://www.w3.org/2000/svg" xmlns:xlink="http://www.w3.org/1999/xlink" version="1.1"><rect width="900" height="600" fill="#fefefe"></rect><g><g transform="translate(850 196)"><path d="M87.1 -66.5C107.1 -44.3 113.7 -8.4 104.4 20.5C95.1 49.4 70 71.3 39.8 87.9C9.6 104.5 -25.8 115.7 -51.6 104.4C-77.3 93 -93.5 59 -101.3 23.5C-109.1 -12 -108.6 -49.1 -90.3 -70.9C-72 -92.6 -36 -99.1 -1.2 -98.1C33.5 -97.1 67 -88.6 87.1 -66.5Z" fill="#00aaff"></path></g><g transform="translate(221 477)"><path d="M52.4 -42.6C65.2 -25.8 70.9 -4.1 66.1 14.4C61.4 32.9 46.1 48.4 27.7 57.1C9.4 65.7 -12 67.6 -28.7 59.5C-45.3 51.5 -57.2 33.6 -59.4 15.9C-61.6 -1.9 -54.1 -19.5 -42.6 -36.1C-31.1 -52.6 -15.5 -68.1 2.1 -69.8C19.8 -71.5 39.6 -59.4 52.4 -42.6Z" fill="#00aaff"></path></g><g transform="translate(365 203)"><path d="M57.7 -46.2C72.7 -27.3 81.2 -3.4 76.6 17.7C72 38.8 54.1 57.1 33.4 65.8C12.6 74.4 -11.1 73.3 -34.2 64.7C-57.3 56 -79.9 39.7 -85.5 18.5C-91.1 -2.6 -79.8 -28.7 -62.8 -48.1C-45.7 -67.5 -22.9 -80.3 -0.7 -79.7C21.4 -79.2 42.8 -65.2 57.7 -46.2Z" fill="#00aaff"></path></g><g transform="translate(98 8)"><path d="M54.2 -41C65.7 -28.7 67.5 -6.5 62.3 13.4C57.1 33.2 44.9 50.5 28.1 58.8C11.3 67 -10 66.1 -28.1 57.7C-46.2 49.2 -61.1 33.3 -65.4 14.8C-69.8 -3.8 -63.7 -24.9 -51.1 -37.4C-38.4 -49.9 -19.2 -53.9 1.1 -54.8C21.3 -55.6 42.6 -53.3 54.2 -41Z" fill="#00aaff"></path></g></g></svg>