<svg id="visual" viewBox="0 0 900 450" width="900" height="450" xmlns="http://www.w3.org/2000/svg" xmlns:xlink="http://www.w3.org/1999/xlink" version="1.1"><rect width="900" height="450" fill="#fefefe"></rect><g><g transform="translate(784 115)"><path d="M90.3 -30.9C101.5 5.2 84.4 48.9 53.3 71C22.1 93.1 -23.1 93.6 -52.4 72.2C-81.8 50.9 -95.2 7.8 -83.8 -28.5C-72.5 -64.8 -36.2 -94.3 1.7 -94.8C39.5 -95.4 79.1 -67 90.3 -30.9Z" fill="#00aaff"></path></g><g transform="translate(432 140)"><path d="M52.8 -16.4C59.5 3.5 49.9 29.5 30.6 43.9C11.3 58.3 -17.6 61.2 -37.1 47.8C-56.6 34.5 -66.5 4.8 -58.8 -16.5C-51 -37.9 -25.5 -50.9 -1.2 -50.5C23 -50.1 46 -36.3 52.8 -16.4Z" fill="#00aaff"></path></g><g transform="translate(225 326)"><path d="M79 -26.8C89.5 6.7 76.2 46.7 50.1 64.7C23.9 82.8 -15.2 78.8 -41.4 59.2C-67.7 39.6 -81 4.5 -71.9 -27C-62.9 -58.5 -31.4 -86.4 1.4 -86.8C34.2 -87.3 68.5 -60.3 79 -26.8Z" fill="#00aaff"></path></g></g></svg>