<svg id="visual" viewBox="0 0 900 600" width="900" height="600" xmlns="http://www.w3.org/2000/svg" xmlns:xlink="http://www.w3.org/1999/xlink" version="1.1"><rect width="900" height="600" fill="#fefefe"></rect><g><g transform="translate(714 171)"><path d="M76.1 -58.7C95.4 -36.4 105.8 -4.9 101.2 26.3C96.6 57.5 77.1 88.4 48 104.1C18.9 119.8 -19.6 120.3 -48 104.7C-76.4 89.1 -94.5 57.4 -98.8 26.2C-103 -5.1 -93.3 -35.9 -74.5 -58.1C-55.7 -80.2 -27.9 -93.8 0.2 -94C28.3 -94.2 56.7 -81 76.1 -58.7Z" fill="#00aaff"></path></g><g transform="translate(329 368)"><path d="M58.7 -49.9C71.4 -30.8 74.1 -6.6 68.2 14.2C62.4 35 48 52.5 29.8 61C11.5 69.4 -10.7 68.9 -27.6 59.8C-44.5 50.7 -56.2 33.1 -62.2 12.6C-68.1 -7.9 -68.4 -31.4 -57.1 -50.1C-45.8 -68.9 -22.9 -83 0 -83C22.9 -83 45.9 -69 58.7 -49.9Z" fill="#00aaff"></path></g><g transform="translate(38 199)"><path d="M34.1 -26.3C40.7 -18.8 40.3 -4.9 35.9 5.8C31.6 16.4 23.2 23.7 13.6 28.3C4 32.9 -6.9 34.9 -16.5 31.3C-26.1 27.8 -34.5 18.8 -37 8.3C-39.5 -2.2 -36.1 -14.2 -29 -21.7C-21.9 -29.3 -10.9 -32.5 1.4 -33.6C13.7 -34.7 27.4 -33.8 34.1 -26.3Z" fill="#00aaff"></path></g><g transform="translate(423 91)"><path d="M35.2 -29.9C42.5 -18.9 43.2 -4.5 39.1 7.1C35 18.7 26.2 27.4 15.6 32.5C5 37.6 -7.3 39.2 -17.8 34.9C-28.4 30.6 -37.1 20.5 -38.8 9.9C-40.4 -0.8 -34.9 -12.1 -27.2 -23.2C-19.6 -34.3 -9.8 -45.1 2.1 -46.7C14 -48.4 27.9 -40.9 35.2 -29.9Z" fill="#00aaff"></path></g></g></svg>