<svg id="visual" viewBox="0 0 900 600" width="900" height="600" xmlns="http://www.w3.org/2000/svg" xmlns:xlink="http://www.w3.org/1999/xlink" version="1.1"><rect width="900" height="600" fill="#fefefe"></rect><g><g transform="translate(526 62)"><path d="M87.2 -66.3C104.8 -47.5 105.1 -11.7 94.4 16.2C83.8 44.2 62.3 64.4 36.4 77.6C10.5 90.9 -19.7 97.2 -41.3 86.5C-62.9 75.8 -76 48.1 -79.3 21.5C-82.6 -5 -76.2 -30.3 -61.3 -48.5C-46.5 -66.7 -23.3 -77.8 5.8 -82.4C34.8 -87 69.6 -85.1 87.2 -66.3Z" fill="none" stroke="#00aaff" stroke-width="17"></path></g><g transform="translate(350 442)"><path d="M74.6 -59.6C90.7 -39.3 93.8 -8.6 86 17.3C78.2 43.1 59.6 64.2 35.8 76.4C12 88.7 -17 92.2 -37.3 81C-57.5 69.9 -69 44.1 -74.8 17.4C-80.6 -9.3 -80.8 -36.9 -67.4 -56.6C-54 -76.3 -27 -88 1.1 -88.9C29.2 -89.8 58.5 -79.9 74.6 -59.6Z" fill="none" stroke="#00aaff" stroke-width="17"></path></g><g transform="translate(759 269)"><path d="M50.7 -37.4C61.5 -26.9 63.1 -6 56.7 9.2C50.2 24.5 35.7 34.1 19.5 42.9C3.2 51.7 -14.6 59.6 -28.9 54.7C-43.1 49.9 -53.7 32.3 -58.2 13.1C-62.7 -6 -61.1 -26.7 -50.4 -37.2C-39.7 -47.8 -19.8 -48.1 0.1 -48.1C19.9 -48.2 39.9 -47.9 50.7 -37.4Z" fill="none" stroke="#00aaff" stroke-width="17"></path></g><g transform="translate(98 46)"><path d="M29.4 -23.9C35.6 -15.6 36.5 -3.5 34.3 8.5C32 20.4 26.7 32.4 16.3 39.6C5.9 46.8 -9.6 49.4 -19.4 43.4C-29.3 37.5 -33.6 23.1 -36.9 8.5C-40.1 -6.1 -42.3 -20.8 -36 -29.1C-29.7 -37.3 -14.9 -39.1 -1.6 -37.8C11.6 -36.5 23.1 -32.1 29.4 -23.9Z" fill="none" stroke="#00aaff" stroke-width="17"></path></g></g></svg>