<svg id="visual" viewBox="0 0 900 600" width="900" height="600" xmlns="http://www.w3.org/2000/svg" xmlns:xlink="http://www.w3.org/1999/xlink" version="1.1"><path d="M0 244L25 243.8C50 243.7 100 243.3 150 228.2C200 213 250 183 300 181.5C350 180 400 207 450 206.5C500 206 550 178 600 177.3C650 176.7 700 203.3 750 217C800 230.7 850 231.3 875 231.7L900 232L900 0L875 0C850 0 800 0 750 0C700 0 650 0 600 0C550 0 500 0 450 0C400 0 350 0 300 0C250 0 200 0 150 0C100 0 50 0 25 0L0 0Z" fill="#00aaff"></path><path d="M0 210L25 209C50 208 100 206 150 194.3C200 182.7 250 161.3 300 152.5C350 143.7 400 147.3 450 147.5C500 147.7 550 144.3 600 147.8C650 151.3 700 161.7 750 165.7C800 169.7 850 167.3 875 166.2L900 165L900 0L875 0C850 0 800 0 750 0C700 0 650 0 600 0C550 0 500 0 450 0C400 0 350 0 300 0C250 0 200 0 150 0C100 0 50 0 25 0L0 0Z" fill="#0087de"></path><path d="M0 118L25 111.5C50 105 100 92 150 82.5C200 73 250 67 300 75.2C350 83.3 400 105.7 450 105.3C500 105 550 82 600 86.5C650 91 700 123 750 134.2C800 145.3 850 135.7 875 130.8L900 126L900 0L875 0C850 0 800 0 750 0C700 0 650 0 600 0C550 0 500 0 450 0C400 0 350 0 300 0C250 0 200 0 150 0C100 0 50 0 25 0L0 0Z" fill="#0665bc"></path><path d="M0 57L25 56.8C50 56.7 100 56.3 150 55C200 53.7 250 51.3 300 46C350 40.7 400 32.3 450 30.8C500 29.3 550 34.7 600 34.2C650 33.7 700 27.3 750 27.8C800 28.3 850 35.7 875 39.3L900 43L900 0L875 0C850 0 800 0 750 0C700 0 650 0 600 0C550 0 500 0 450 0C400 0 350 0 300 0C250 0 200 0 150 0C100 0 50 0 25 0L0 0Z" fill="#114499"></path></svg>