<svg id="visual" viewBox="0 0 900 600" width="900" height="600" xmlns="http://www.w3.org/2000/svg" xmlns:xlink="http://www.w3.org/1999/xlink" version="1.1"><path d="M0 385L30 362.2C60 339.3 120 293.7 180 287C240 280.3 300 312.7 360 338.2C420 363.7 480 382.3 540 377.2C600 372 660 343 720 319.3C780 295.7 840 277.3 870 268.2L900 259L900 601L870 601C840 601 780 601 720 601C660 601 600 601 540 601C480 601 420 601 360 601C300 601 240 601 180 601C120 601 60 601 30 601L0 601Z" fill="#00aaff"></path><path d="M0 455L30 447.5C60 440 120 425 180 412.7C240 400.3 300 390.7 360 399C420 407.3 480 433.7 540 431.7C600 429.7 660 399.3 720 394.8C780 390.3 840 411.7 870 422.3L900 433L900 601L870 601C840 601 780 601 720 601C660 601 600 601 540 601C480 601 420 601 360 601C300 601 240 601 180 601C120 601 60 601 30 601L0 601Z" fill="#0076cd"></path><path d="M0 476L30 470.3C60 464.7 120 453.3 180 452.5C240 451.7 300 461.3 360 470.7C420 480 480 489 540 501C600 513 660 528 720 518C780 508 840 473 870 455.5L900 438L900 601L870 601C840 601 780 601 720 601C660 601 600 601 540 601C480 601 420 601 360 601C300 601 240 601 180 601C120 601 60 601 30 601L0 601Z" fill="#114499"></path></svg>