<svg id="visual" viewBox="0 0 900 300" width="900" height="300" xmlns="http://www.w3.org/2000/svg" xmlns:xlink="http://www.w3.org/1999/xlink" version="1.1"><path d="M0 101L30 93.7C60 86.3 120 71.7 180 77.7C240 83.7 300 110.3 360 110.7C420 111 480 85 540 84.2C600 83.3 660 107.7 720 110.5C780 113.3 840 94.7 870 85.3L900 76L900 301L870 301C840 301 780 301 720 301C660 301 600 301 540 301C480 301 420 301 360 301C300 301 240 301 180 301C120 301 60 301 30 301L0 301Z" fill="#00aaff"></path><path d="M0 178L30 183.8C60 189.7 120 201.3 180 199.8C240 198.3 300 183.7 360 183.5C420 183.3 480 197.7 540 200.3C600 203 660 194 720 194.2C780 194.3 840 203.7 870 208.3L900 213L900 301L870 301C840 301 780 301 720 301C660 301 600 301 540 301C480 301 420 301 360 301C300 301 240 301 180 301C120 301 60 301 30 301L0 301Z" fill="#0076cd"></path><path d="M0 171L30 188C60 205 120 239 180 248C240 257 300 241 360 226.8C420 212.7 480 200.3 540 208.7C600 217 660 246 720 250.5C780 255 840 235 870 225L900 215L900 301L870 301C840 301 780 301 720 301C660 301 600 301 540 301C480 301 420 301 360 301C300 301 240 301 180 301C120 301 60 301 30 301L0 301Z" fill="#114499"></path></svg>